# AST/ASF file generated using VICON BodyLanguage
# -----------------------------------------------
:version 1.10
:name VICON
:units
  mass 1.0
  length 0.45
  angle deg
:documentation
   .ast/.asf automatically generated from VICON data using
   VICON BodyBuilder and BodyLanguage model FoxedUp or BRILLIANT.MOD
:root
   order TX TY TZ RX RY RZ
   axis XYZ
   position 0 0 0  
   orientation 0 0 0 
:bonedata
  begin
     id 1 
     name lhipjoint
     direction 0.606768 -0.715223 0.346827 
     length 2.41543 
     axis 0 0 0  XYZ
  end
  begin
     id 2 
     name lfemur
     direction 0.34202 -0.939693 0  
     length 7.2778  
     axis 0 0 20  XYZ
    dof rx ry rz
    limits (-160.0 20.0)
           (-70.0 70.0)
           (-60.0 70.0)
  end
  begin
     id 3 
     name ltibia
     direction 0.34202 -0.939693 0   
     length 7.61811   
     axis 0 0 20   XYZ
    dof rx
    limits (-10.0 170.0)
  end
  begin
     id 4 
     name lfoot
     direction 0.0823924 -0.226371 0.97055   
     length 2.33618   
     axis -90 7.62852e-016 20   XYZ
    dof rx rz
    limits (-45.0 90.0)
           (-70.0 20.0)
  end
  begin
     id 5 
     name ltoes
     direction 1.53554e-011 -4.21934e-011 1   
     length 1.17015   
     axis -90 7.62852e-016 20   XYZ
    dof rx
    limits (-90.0 20.0)
  end
  begin
     id 6 
     name rhipjoint
     direction -0.6077 -0.714582 0.346516   
     length 2.4176  
     axis 0 0 0  XYZ 
  end
  begin
     id 7 
     name rfemur
     direction -0.34202 -0.939693 0   
     length 7.28127   
     axis 0 0 -20   XYZ
    dof rx ry rz
    limits (-160.0 20.0)
           (-70.0 70.0)
           (-70.0 60.0)
  end
  begin
     id 8 
     name rtibia
     direction -0.34202 -0.939693 0   
     length 7.77648   
     axis 0 0 -20   XYZ
    dof rx
    limits (-10.0 170.0)
 end
 begin
     id 9 
     name rfoot
     direction -0.0809463 -0.222398 0.97159   
     length 2.37533  
     axis -90 -7.62852e-016 -20   XYZ
    dof rx rz
    limits (-45.0 90.0)
           (-20.0 70.0)
  end
  begin
     id 10 
     name rtoes
     direction -1.53568e-011 -4.21714e-011 1   
     length 1.18972   
     axis -90 -7.62852e-016 -20   XYZ
    dof rx
    limits (-90.0 20.0)
  end
  begin
     id 11 
     name lowerback
     direction 0.010968 0.991932 -0.126297   
     length 2.21698   
     axis 0 0 0   XYZ
    dof rx ry rz
    limits (-20.0 45.0)
           (-30.0 30.0)
           (-30.0 30.0)
  end
  begin
     id 12 
     name upperback
     direction 0.0167007 0.997503 -0.0686276   
     length 2.22371   
     axis 0 0 0   XYZ
    dof rx ry rz
    limits (-20.0 45.0)
           (-30.0 30.0)
           (-30.0 30.0)
  end
  begin
     id 13 
     name thorax
     direction 0.0111721 0.999885 -0.0102878   
     length 2.25242   
     axis 0 0 0   XYZ
    dof rx ry rz
    limits (-20.0 45.0)
           (-30.0 30.0)
           (-30.0 30.0)
  end
  begin
     id 14 
     name lowerneck
     direction -0.0120265 0.990428 0.137508   
     length 1.57674   
     axis 0 0 0   XYZ
    dof rx ry rz
    limits (-20.0 45.0)
           (-30.0 30.0)
           (-30.0 30.0)
  end
  begin
     id 15 
     name upperneck
     direction 0.0175669 0.998907 0.0433089   
     length 1.5618   
     axis 0 0 0   XYZ
    dof rx ry rz
    limits (-20.0 45.0)
           (-30.0 30.0)
           (-30.0 30.0)
  end
  begin
     id 16
     name head
     direction 0.00754609 0.99997 0.00185367  
     length 1.60579  
     axis 0 0 0   XYZ
    dof rx ry rz
    limits (-20.0 45.0)
           (-30.0 30.0)
           (-30.0 30.0)
  end
  begin
     id 17 
     name lclavicle
     direction 0.885866 0.429166 -0.176231  
     length 3.44967  
     axis 0 0 0   XYZ
    dof ry rz
    limits (-20.0 10.0)
           (0.0 20.0)
  end
  begin
     id 18 
     name lhumerus
     direction 1 -4.48973e-011 -1.90255e-027   
     length 5.20607   
     axis 180 -30 -90   XYZ
    dof rx ry rz
    limits (-60.0 90.0)
           (-90.0 90.0)
           (-90.0 90.0)
  end
  begin
     id 19
     name lradius
     direction 1 -4.48956e-011 9.87925e-027   
     length 3.39961   
     axis 180 -30 -90   XYZ
    dof rx
    limits (-10.0 170.0)
  end
  begin
     id 20
     name lwrist
     direction 1 -4.48985e-011 1.73247e-026   
     length 1.6998   
     axis -9.60847e-015 90 90   XYZ
    dof ry
    limits (-180.0 0.0)
 end
  begin
     id 21 
     name lhand
     direction 1 -4.48798e-011 3.46119e-026   
     length 0.519693   
     axis -2.21073e-014 90 90   XYZ
    dof rx rz
    limits (-90.0 90.0)
           (-45.0 45.0)
  end
  begin
     id 22 
     name lfingers
     direction 1 -4.48938e-011 6.92797e-026   
     length 0.41899   
     axis -4.42155e-014 90 90   XYZ
    dof rx
    limits (0.0 90.0)
  end
  begin
     id 23
     name lthumb
     direction 0.707107 -6.34952e-011 0.707107   
     length 0.601588   
     axis -90 45 6.0103e-014   XYZ
    dof rx rz
    limits (-45.0 45.0)
           (-45.0 45.0)
  end
  begin
     id 24 
     name rclavicle
     direction -0.866736 0.456792 -0.200276   
     length 3.45032  
     axis 0 0 0   XYZ 
    dof ry rz
    limits (-10.0 20.0)
           (-20.0 0.0)
  end
  begin
     id 25 
     name rhumerus
     direction -1 -4.4897e-011 8.65094e-028  
     length 5.32214   
     axis 180 30 90   XYZ
    dof rx ry rz
    limits (-90.0 60.0)
           (-90.0 90.0)
           (-90.0 90.0)
  end
  begin
     id 26 
     name rradius
     direction -1 -4.48987e-011 1.08427e-026   
     length 3.51208   
     axis 180 30 90   XYZ
    dof rx
    limits (-10.0 170.0)
  end
  begin
     id 27 
     name rwrist
     direction -1 -4.48961e-011 1.73222e-026   
     length 1.75604   
     axis -9.60847e-015 -90 -90   XYZ
    dof ry
    limits (-180.0 0.0)
  end
  begin
     id 28
     name rhand
     direction -1 -4.48895e-011 3.46314e-026   
     length 0.586681   
     axis -2.21073e-014 -90 -90   XYZ
    dof rx rz
    limits (-90.0 90.0)
           (-45.0 45.0)
  end
  begin
     id 29
     name rfingers
     direction -1 -4.48968e-011 6.92916e-026   
     length 0.472997   
     axis -4.42155e-014 -90 -90   XYZ
    dof rx
    limits (0.0 90.0)
  end
  begin
     id 30
     name rthumb
     direction -0.707107 -6.34848e-011 0.707107   
     length 0.679133   
     axis -90 -45 -6.0103e-014   XYZ
    dof rx rz
    limits (-45.0 45.0)
           (-45.0 45.0)
  end
:hierarchy
  begin
    root lhipjoint rhipjoint lowerback
    lhipjoint lfemur
    lfemur ltibia
    ltibia lfoot
    lfoot ltoes
    rhipjoint rfemur
    rfemur rtibia
    rtibia rfoot
    rfoot rtoes
    lowerback upperback
    upperback thorax
    thorax lowerneck lclavicle rclavicle
    lowerneck upperneck
    upperneck head
    lclavicle lhumerus
    lhumerus lradius
    lradius lwrist
    lwrist lhand lthumb
    lhand lfingers
    rclavicle rhumerus
    rhumerus rradius
    rradius rwrist
    rwrist rhand rthumb
    rhand rfingers
  end

#!OML:ASF H:\Dans Jumps\Project 1\Capture day 1\Session 1\subject.ASF
:FULLY-SPECIFIED
:DEGREES
41
root 0.440617 17.4636 -14.7146 7.26891 0.660935 -1.89657
lowerback 1.41976 -0.879727 0.464239
upperback 4.36828 -1.2383 2.02347
thorax 3.73383 -0.641523 1.80122
lowerneck -11.5184 0.245308 -1.81993
upperneck 30.2596 0.640428 0.452969
head 11.7806 0.132567 0.569261
rclavicle 1.5704e-014 -2.38542e-015
rhumerus -26.2833 -15.372 -78.6764
rradius 25.2178
rwrist 29.3996
rhand -18.803 -26.6089
rfingers 7.12502
rthumb 7.49532 -56.4561
lclavicle 1.5704e-014 -2.38542e-015
lhumerus -21.1361 -1.28787 89.0164
lradius 18.9605
lwrist 6.78923
lhand -26.0663 -4.25217
lfingers 7.12502
lthumb 0.481674 25.727
rfemur -18.5849 -3.69225 20.8631
rtibia 26.8559
rfoot -14.181 -1.75452
rtoes 12.7243
lfemur -18.2385 7.84384 -17.7534
ltibia 25.3852
lfoot -12.4126 4.86863
ltoes -0.853049
42
root 0.438598 17.4643 -14.7083 7.26796 0.67214 -1.89555
lowerback 1.41538 -0.871984 0.459478
upperback 4.35975 -1.22751 2.01365
thorax 3.72695 -0.636058 1.79393
lowerneck -11.4909 0.235129 -1.81713
upperneck 30.2343 0.625784 0.449332
head 11.7651 0.126183 0.565257
rclavicle -1.44119e-014 1.59028e-014
rhumerus -26.2881 -15.3741 -78.7341
rradius 25.2159
rwrist 29.4025
rhand -18.7771 -26.5878
rfingers 7.12502
rthumb 7.52034 -56.4341
lclavicle -1.44119e-014 1.59028e-014
lhumerus -21.1301 -1.32607 88.9942
lradius 19.0064
lwrist 6.84092
lhand -26.0967 -4.25918
lfingers 7.12502
lthumb 0.452332 25.7201
rfemur -18.5502 -3.71293 20.8708
rtibia 26.8388
rfoot -14.1988 -1.75413
rtoes 12.6984
lfemur -18.2007 7.85499 -17.7477
ltibia 25.3596
lfoot -12.4003 4.89304
ltoes -0.949979
43
root 0.436957 17.4647 -14.7023 7.26756 0.679364 -1.89226
lowerback 1.41135 -0.86356 0.45525
upperback 4.35165 -1.21579 2.0024
thorax 3.72025 -0.630081 1.78489
lowerneck -11.4602 0.227689 -1.81209
upperneck 30.2012 0.614938 0.444026
head 11.7459 0.121605 0.560697
rclavicle 2.76311e-014 -2.50469e-014
rhumerus -26.2857 -15.3852 -78.7933
rradius 25.2111
rwrist 29.4101
rhand -18.7443 -26.5635
rfingers 7.12502
rthumb 7.552 -56.4087
lclavicle 2.76311e-014 -2.50469e-014
lhumerus -21.1212 -1.3618 88.968
lradius 19.0459
lwrist 6.89392
lhand -26.1287 -4.27303
lfingers 7.12502
lthumb 0.421478 25.7063
rfemur -18.52 -3.72982 20.8752
rtibia 26.8271
rfoot -14.2184 -1.75746
rtoes 12.6764
lfemur -18.1634 7.84993 -17.7451
ltibia 25.3342
lfoot -12.3854 4.93128
ltoes -1.02266
44
root 0.435633 17.465 -14.6964 7.26801 0.679758 -1.88561
lowerback 1.40748 -0.853623 0.448126
upperback 4.34389 -1.20201 1.99051
thorax 3.71381 -0.623171 1.77684
lowerneck -11.4256 0.222648 -1.80595
upperneck 30.1606 0.607783 0.436644
head 11.7229 0.118607 0.555614
rclavicle -7.7526e-015 3.20043e-014
rhumerus -26.2758 -15.4039 -78.8528
rradius 25.2014
rwrist 29.426
rhand -18.7164 -26.5419
rfingers 7.12502
rthumb 7.57887 -56.3861
lclavicle -7.7526e-015 3.20043e-014
lhumerus -21.1067 -1.3946 88.939
lradius 19.0758
lwrist 6.94073
lhand -26.1568 -4.27699
lfingers 7.12502
lthumb 0.394266 25.7024
rfemur -18.4958 -3.73592 20.8747
rtibia 26.8224
rfoot -14.2403 -1.76838
rtoes 12.6521
lfemur -18.1268 7.83166 -17.7466
ltibia 25.309
lfoot -12.3674 4.98206
ltoes -1.08763
45
root 0.434615 17.4651 -14.6908 7.26861 0.674787 -1.87266
lowerback 1.40365 -0.842552 0.435349
upperback 4.33641 -1.18663 1.97705
thorax 3.70768 -0.61563 1.77038
lowerneck -11.3831 0.218528 -1.80062
upperneck 30.1111 0.602321 0.427963
head 11.6947 0.11619 0.550346
rclavicle 7.45443e-015 3.37934e-015
rhumerus -26.2609 -15.4282 -78.9121
rradius 25.1867
rwrist 29.4524
rhand -18.6962 -26.5226
rfingers 7.12502
rthumb 7.59844 -56.3661
lclavicle 7.45443e-015 3.37934e-015
lhumerus -21.0869 -1.42581 88.9073
lradius 19.0954
lwrist 6.9782
lhand -26.1801 -4.2798
lfingers 7.12502
lthumb 0.371827 25.6996
rfemur -18.4768 -3.73138 20.866
rtibia 26.8251
rfoot -14.2626 -1.78967
rtoes 12.6121
lfemur -18.0897 7.79886 -17.7549
ltibia 25.2839
lfoot -12.348 5.04317
ltoes -1.13427
46
root 0.433926 17.4651 -14.6851 7.26935 0.661707 -1.85307
lowerback 1.39818 -0.829719 0.415224
upperback 4.33085 -1.16889 1.96283
thorax 3.70454 -0.607164 1.76727
lowerneck -11.3423 0.215105 -1.79429
upperneck 30.0582 0.599251 0.413983
head 11.6656 0.114328 0.543253
rclavicle 5.26779e-015 2.98177e-015
rhumerus -26.2434 -15.4356 -78.9755
rradius 25.1794
rwrist 29.4705
rhand -18.6862 -26.5104
rfingers 7.12502
rthumb 7.60802 -56.3536
lclavicle 5.26779e-015 2.98177e-015
lhumerus -21.0585 -1.45219 88.8738
lradius 19.103
lwrist 7.00181
lhand -26.194 -4.27087
lfingers 7.12502
lthumb 0.358398 25.7086
rfemur -18.4622 -3.71365 20.8481
rtibia 26.834
rfoot -14.2858 -1.81996
rtoes 12.5572
lfemur -18.0517 7.75886 -17.7711
ltibia 25.2594
lfoot -12.329 5.11277
ltoes -1.17355
